<svg xmlns="http://www.w3.org/2000/svg" xmlns:xlink="http://www.w3.org/1999/xlink"  fill="#FFDB6E" version="1.1" x="0px" y="0px" viewBox="0 0 96 120" style="enable-background:new 0 0 96 96;" xml:space="preserve"><style type="text/css">
	.st0{fill-rule:evenodd;clip-rule:evenodd;}
</style>
<path class="st0" d="M63.813,49.939v5.112c0,2.421-7.08,4.384-15.813,4.384c-8.733,0-15.813-1.963-15.813-4.384v-5.112  C36.87,52.414,44.648,52.718,48,52.718C51.352,52.718,59.13,52.414,63.813,49.939L63.813,49.939z M49.833,63.821l-0.315-2.63h-3.036  l-0.315,2.63c-0.56,0.154-1.092,0.376-1.587,0.658l-2.084-1.638l-2.147,2.147l1.637,2.083c-0.282,0.494-0.504,1.026-0.658,1.587  l-2.63,0.315v3.036l2.631,0.315c0.154,0.56,0.376,1.092,0.658,1.587l-1.638,2.084l2.147,2.147l2.083-1.637  c0.494,0.282,1.026,0.504,1.587,0.658l0.315,2.63h3.036l0.315-2.631c0.56-0.154,1.092-0.376,1.587-0.658l2.084,1.638l2.147-2.147  l-1.637-2.083c0.282-0.494,0.504-1.026,0.658-1.587l2.63-0.315v-3.036l-2.631-0.315c-0.154-0.56-0.376-1.092-0.658-1.587  l1.638-2.084l-2.147-2.147l-2.083,1.637C50.927,64.198,50.395,63.975,49.833,63.821L49.833,63.821z M48.059,65.525  c0.057,0,0.113,0.003,0.168,0.01c1.313,0.059,2.489,0.625,3.338,1.503c0.879,0.909,1.414,2.151,1.397,3.513h0.005  c0,0.057-0.003,0.113-0.01,0.168c-0.059,1.314-0.625,2.489-1.503,3.338c-0.909,0.879-2.151,1.414-3.513,1.397v0.005  c-0.057,0-0.113-0.003-0.168-0.01c-1.314-0.059-2.489-0.625-3.339-1.503c-0.884-0.914-1.42-2.164-1.397-3.535  c0.023-1.372,0.597-2.603,1.508-3.485c0.909-0.879,2.151-1.414,3.513-1.397V65.525L48.059,65.525z M48.059,68.32  c0.024,0,0.049-0.001,0.072-0.002c0.562,0.034,1.067,0.282,1.436,0.663c0.387,0.4,0.621,0.947,0.611,1.549l-0.001,0.022l-0.005,0  c0,0.024,0.001,0.049,0.002,0.073c-0.033,0.562-0.282,1.067-0.663,1.436c-0.4,0.387-0.948,0.621-1.549,0.611l-0.022-0.001l0-0.005  c-0.024,0-0.049,0.001-0.073,0.002c-0.562-0.033-1.067-0.282-1.436-0.663c-0.387-0.4-0.621-0.948-0.611-1.549  c0.01-0.6,0.264-1.141,0.667-1.531c0.4-0.387,0.948-0.621,1.549-0.611l0.022,0.001L48.059,68.32L48.059,68.32z M26.263,38.859v3.745  c0,1.773-5.186,3.211-11.583,3.211S3.097,44.377,3.097,42.603v-3.745c3.43,1.813,9.128,2.035,11.583,2.035  S22.833,40.672,26.263,38.859L26.263,38.859z M92.903,38.859v3.745c0,1.773-5.186,3.211-11.583,3.211  c-6.397,0-11.583-1.438-11.583-3.211v-3.745c3.43,1.813,9.128,2.035,11.583,2.035C83.775,40.894,89.473,40.672,92.903,38.859  L92.903,38.859z M78.595,56.445H67.816c-0.772,0-1.397-0.626-1.397-1.397c0-0.772,0.626-1.397,1.397-1.397h10.779  c0.293-0.569,0.758-1.035,1.328-1.328v-2.516c0-0.772,0.626-1.397,1.397-1.397c0.772,0,1.397,0.626,1.397,1.397v2.516  c0.988,0.508,1.664,1.537,1.664,2.725c0,1.691-1.371,3.061-3.061,3.061C80.132,58.11,79.103,57.433,78.595,56.445L78.595,56.445z   M89.31,41.671l-0.159,0.042c-0.217,0.057-0.063,0.019-0.162,0.044c-0.432,0.11-0.693,0.55-0.583,0.982  c0.11,0.432,0.55,0.693,0.983,0.583c0.214-0.055,0.077-0.017,0.18-0.045l0.172-0.048c0.431-0.119,0.683-0.565,0.564-0.995  C90.187,41.805,89.741,41.552,89.31,41.671L89.31,41.671z M86.155,42.287l-0.326,0.039c-0.445,0.052-0.762,0.455-0.71,0.9  c0.053,0.445,0.456,0.762,0.9,0.71l0.345-0.045c0.443-0.058,0.755-0.464,0.697-0.906C87.003,42.541,86.597,42.229,86.155,42.287  L86.155,42.287z M89.31,33.858c0.431-0.119,0.876,0.134,0.995,0.564c0.119,0.431-0.134,0.876-0.564,0.995l-0.172,0.048  c-0.104,0.028,0.033-0.01-0.18,0.045c-0.432,0.11-0.872-0.151-0.983-0.583c-0.11-0.432,0.151-0.872,0.583-0.983  c0.099-0.025-0.055,0.013,0.162-0.044L89.31,33.858L89.31,33.858z M86.13,34.477c0.443-0.058,0.849,0.254,0.906,0.697  c0.058,0.443-0.254,0.849-0.697,0.906c-0.288,0.038,0.002,0.003-0.174,0.025l-0.171,0.02c-0.445,0.052-0.848-0.265-0.9-0.71  c-0.053-0.445,0.265-0.848,0.71-0.9l0.165-0.02C86.257,34.46,85.955,34.5,86.13,34.477L86.13,34.477z M89.31,26.035  c0.431-0.119,0.876,0.134,0.995,0.564c0.119,0.431-0.134,0.876-0.564,0.995l-0.172,0.048c-0.104,0.028,0.033-0.01-0.18,0.045  c-0.432,0.11-0.872-0.151-0.983-0.583c-0.11-0.432,0.151-0.872,0.583-0.982c0.099-0.025-0.055,0.013,0.162-0.044L89.31,26.035  L89.31,26.035z M86.169,26.649c0.443-0.058,0.849,0.255,0.906,0.697c0.058,0.443-0.254,0.849-0.697,0.906l-0.183,0.024l-0.18,0.023  c-0.445,0.053-0.848-0.265-0.9-0.71c-0.052-0.445,0.265-0.848,0.71-0.9l0.174-0.02L86.169,26.649L86.169,26.649z M93,26.811v-3.958  c-2.596,1.503-6.86,2.483-11.68,2.483c-4.82,0-9.084-0.98-11.68-2.483v3.958c0,1.773,5.23,3.211,11.68,3.211  C87.77,30.022,93,28.584,93,26.811L93,26.811z M92.999,30.602c-3.419,1.86-9.201,2.086-11.679,2.086  c-2.478,0-8.26-0.227-11.679-2.086v4.414c0,1.773,5.229,3.211,11.679,3.211c6.45,0,11.679-1.438,11.679-3.211V30.602L92.999,30.602z   M81.32,16.205c6.438,0,11.658,1.447,11.658,3.232c0,1.785-5.219,3.232-11.658,3.232c-6.438,0-11.658-1.447-11.658-3.232  C69.662,17.652,74.881,16.205,81.32,16.205L81.32,16.205z M28.184,53.651c0.772,0,1.397,0.626,1.397,1.397  c0,0.772-0.626,1.397-1.397,1.397H17.405c-0.508,0.988-1.537,1.664-2.725,1.664c-1.691,0-3.062-1.371-3.062-3.061  c0-1.187,0.676-2.217,1.664-2.725v-2.516c0-0.772,0.626-1.397,1.397-1.397c0.772,0,1.397,0.626,1.397,1.397v2.516  c0.569,0.292,1.035,0.758,1.328,1.328H28.184L28.184,53.651z M22.671,41.671l-0.159,0.042c-0.217,0.057-0.063,0.019-0.162,0.044  c-0.432,0.11-0.693,0.55-0.583,0.982c0.11,0.432,0.55,0.693,0.983,0.583c0.214-0.055,0.077-0.017,0.18-0.045l0.172-0.048  c0.431-0.119,0.683-0.565,0.564-0.995C23.547,41.805,23.102,41.552,22.671,41.671L22.671,41.671z M19.515,42.287l-0.326,0.039  c-0.445,0.052-0.762,0.455-0.71,0.9c0.052,0.445,0.455,0.762,0.9,0.71l0.345-0.045c0.443-0.058,0.755-0.464,0.697-0.906  C20.364,42.541,19.958,42.229,19.515,42.287L19.515,42.287z M22.671,33.858c0.431-0.119,0.876,0.134,0.995,0.564  c0.119,0.431-0.134,0.876-0.564,0.995l-0.172,0.048c-0.104,0.028,0.033-0.01-0.18,0.045c-0.432,0.11-0.872-0.151-0.983-0.583  c-0.11-0.432,0.151-0.872,0.583-0.983c0.099-0.025-0.055,0.013,0.162-0.044L22.671,33.858L22.671,33.858z M19.491,34.477  c0.443-0.058,0.849,0.254,0.906,0.697c0.058,0.443-0.254,0.849-0.697,0.906c-0.288,0.038,0.002,0.003-0.174,0.025l-0.171,0.02  c-0.445,0.052-0.848-0.265-0.9-0.71c-0.053-0.445,0.265-0.848,0.71-0.9l0.165-0.02C19.618,34.46,19.315,34.5,19.491,34.477  L19.491,34.477z M22.671,26.035c0.431-0.119,0.876,0.134,0.995,0.564c0.119,0.431-0.134,0.876-0.564,0.995l-0.172,0.048  c-0.104,0.028,0.033-0.01-0.18,0.045c-0.432,0.11-0.872-0.151-0.983-0.583c-0.11-0.432,0.151-0.872,0.583-0.982  c0.099-0.025-0.055,0.013,0.162-0.044L22.671,26.035L22.671,26.035z M19.529,26.649c0.443-0.058,0.849,0.255,0.906,0.697  c0.058,0.443-0.254,0.849-0.697,0.906l-0.183,0.024l-0.18,0.023c-0.445,0.053-0.848-0.265-0.9-0.71  c-0.052-0.445,0.265-0.848,0.71-0.9l0.174-0.02L19.529,26.649L19.529,26.649z M26.361,26.811v-3.958  c-2.596,1.503-6.86,2.483-11.68,2.483c-4.82,0-9.084-0.98-11.68-2.483v3.958c0,1.773,5.23,3.211,11.68,3.211  C21.131,30.022,26.361,28.584,26.361,26.811L26.361,26.811z M26.359,30.602c-3.419,1.86-9.201,2.086-11.679,2.086  c-2.478,0-8.26-0.227-11.679-2.086v4.414c0,1.773,5.229,3.211,11.679,3.211c6.45,0,11.679-1.438,11.679-3.211V30.602L26.359,30.602z   M14.68,16.205c6.438,0,11.658,1.447,11.658,3.232c0,1.785-5.219,3.232-11.658,3.232S3.023,21.222,3.023,19.437  C3.023,17.652,8.242,16.205,14.68,16.205L14.68,16.205z M58.909,53.778l-0.217,0.058c-0.296,0.078-0.086,0.026-0.221,0.061  c-0.59,0.15-0.947,0.751-0.796,1.341c0.151,0.59,0.751,0.947,1.341,0.796c0.292-0.075,0.105-0.023,0.246-0.062l0.235-0.065  c0.588-0.162,0.933-0.771,0.77-1.359C60.105,53.961,59.497,53.616,58.909,53.778L58.909,53.778z M54.601,54.619l-0.445,0.053  c-0.607,0.072-1.041,0.622-0.969,1.229c0.072,0.607,0.622,1.041,1.229,0.969l0.472-0.062c0.605-0.079,1.031-0.633,0.952-1.237  C55.759,54.966,55.205,54.54,54.601,54.619L54.601,54.619z M58.909,43.112c0.588-0.162,1.196,0.182,1.359,0.77  c0.162,0.588-0.182,1.196-0.77,1.359l-0.235,0.065c-0.141,0.038,0.046-0.013-0.246,0.062c-0.59,0.151-1.191-0.206-1.341-0.796  c-0.15-0.59,0.206-1.191,0.796-1.341c0.135-0.035-0.075,0.018,0.221-0.06L58.909,43.112L58.909,43.112z M54.567,43.958  c0.604-0.079,1.159,0.347,1.237,0.952c0.079,0.605-0.347,1.159-0.952,1.237c-0.393,0.052,0.003,0.004-0.238,0.034l-0.234,0.028  c-0.607,0.072-1.157-0.362-1.229-0.969c-0.072-0.607,0.362-1.157,0.969-1.229l0.225-0.028C54.74,43.934,54.327,43.989,54.567,43.958  L54.567,43.958z M58.909,32.432c0.588-0.162,1.196,0.182,1.359,0.77c0.162,0.588-0.182,1.196-0.77,1.359l-0.235,0.065  c-0.141,0.038,0.046-0.013-0.246,0.062c-0.59,0.151-1.191-0.206-1.341-0.796c-0.15-0.59,0.206-1.191,0.796-1.341  c0.135-0.035-0.075,0.018,0.221-0.061L58.909,32.432L58.909,32.432z M54.62,33.271c0.605-0.079,1.159,0.347,1.237,0.952  c0.079,0.605-0.347,1.159-0.952,1.237l-0.25,0.033l-0.246,0.032c-0.607,0.072-1.157-0.362-1.229-0.969  c-0.072-0.607,0.362-1.157,0.969-1.229l0.237-0.028L54.62,33.271L54.62,33.271z M63.946,33.491v-5.403  c-3.545,2.052-9.365,3.39-15.946,3.39c-6.58,0-12.401-1.338-15.946-3.39v5.403c0,2.421,7.139,4.384,15.946,4.384  C56.807,37.875,63.946,35.912,63.946,33.491L63.946,33.491z M63.944,38.667c-4.668,2.539-12.56,2.848-15.944,2.848  c-3.383,0-11.276-0.309-15.944-2.848v6.026c0,2.421,7.138,4.384,15.944,4.384c8.806,0,15.944-1.963,15.944-4.384V38.667  L63.944,38.667z M48,19.013c8.789,0,15.915,1.975,15.915,4.412c0,2.437-7.125,4.412-15.915,4.412  c-8.789,0-15.915-1.975-15.915-4.412C32.085,20.988,39.211,19.013,48,19.013z"/>

<!-- <text x="0" y="111" fill="#000000" font-size="5px" font-weight="bold" font-family="'Helvetica Neue', Helvetica, Arial-Unicode, Arial, Sans-serif">Created by Naya Putri</text><text x="0" y="116" fill="#FFDB6E" font-size="5px" font-weight="bold" font-family="'Helvetica Neue', Helvetica, Arial-Unicode, Arial, Sans-serif">from the Noun Project</text> -->

</svg>